<?xml version="1.0" encoding="UTF-8"?>
<svg id="Layer_2" data-name="Layer 2" xmlns="http://www.w3.org/2000/svg" viewBox="0 0 299.78 64.33">
  <defs>
    <style>
      .cls-1 {
        fill: #1b1b1b;
        stroke-width: 0px;
      }
    </style>
  </defs>
  <g id="Layer_3" data-name="Layer 3">
    <g>
      <path class="cls-1" d="M45.59,32.29c0,8.96.04,17.93-.02,26.89-.02,3.67-2.99,5.98-6.15,4.89-2.17-.75-3.2-2.43-3.3-4.66-.07-1.46,0-2.93-.06-4.4-.21-4.99-3.39-8.56-8.36-8.77-6.43-.27-12.88-.15-19.32-.19-1.22,0-2.45.04-3.67-.04C1.98,45.84.03,43.88,0,41.35c-.03-2.5,1.9-4.67,4.58-4.83,2.76-.16,5.54-.05,8.31-.08,3.49-.04,5.08-1.59,5.09-5.05.02-8.55-.01-17.11.03-25.66.02-3.6,2.05-5.86,4.95-5.72,2.61.13,4.46,2.02,4.51,4.82.07,3.91.02,7.82.05,11.73.03,3.43,1.62,5.33,4.38,5.29,2.67-.04,4.12-1.83,4.16-5.2.04-3.67,0-7.33.04-11,.03-3.54,1.98-5.71,5.01-5.65,2.66.06,4.47,2.28,4.48,5.64.02,8.88,0,17.76,0,26.64h-.01Z"/>
      <path class="cls-1" d="M71.57,14.3v14.74c2.37-2.22,4.62-3.51,7.52-3.11,5.37.74,8.79,6.01,7.96,12.32-.79,6.02-4.51,10.36-10.54,11.17-3.46.46-7.08-.2-10.62-.45-1.31-.09-1.94-.88-1.94-2.3.03-9.53-.03-19.05.06-28.58,0-.72.77-1.81,1.45-2.08,1.79-.71,3.72-1.07,6.1-1.7ZM71.24,39.73c.33,3.82,1.73,4.77,4.96,3.24,2.6-1.23,3.91-4.95,2.56-8.06-.45-1.04-1.64-2.36-2.57-2.43-1.11-.07-2.81.79-3.35,1.75-.91,1.62-1.1,3.64-1.6,5.49Z"/>
      <path class="cls-1" d="M195.14,25.62c0-2.45.09-4.8-.03-7.14-.08-1.57.46-2.45,2.02-2.78,1.73-.37,3.45-.82,5.5-1.32.06,1.12.15,1.97.15,2.83,0,7.41-.05,14.83.03,22.24.02,2.43.22,4.89.65,7.28.23,1.27-.01,1.87-1.14,2.18-1.17.32-2.54,1.08-3.51.74-1.28-.44-2.25-1.76-3.11-2.49-2,.83-4.22,2.28-6.59,2.61-3.9.54-6.89-1.67-8.4-5.32-3.58-8.63,1.71-17.45,11.04-18.4,1.04-.11,2.08-.27,3.41-.44ZM195.44,36.07l-.3-.07c0-.41,0-.81,0-1.22-.01-2.69-.52-3.11-3.15-2.6-3.46.66-5.54,4.68-4.09,8.47.42,1.1,1.61,2.27,2.71,2.66,1.66.59,3.04-.55,3.61-2.11.6-1.64.83-3.41,1.22-5.13Z"/>
      <path class="cls-1" d="M180.01,49.03c-3.18.2-5.6.49-8.01.41-.73-.02-1.62-.94-2.09-1.67-1.44-2.27-2.66-4.67-4.07-6.96-.32-.52-1.06-.77-1.61-1.15-.3.6-.84,1.18-.86,1.79-.06,1.87.02,3.75.16,5.62.11,1.48-.27,2.2-1.94,2.35-5.97.52-5.99.57-6.02-5.42-.03-8.23.08-16.47-.1-24.7-.05-2.37.75-3.45,2.95-3.85,1.43-.26,2.83-.67,4.66-1.11v19.79l.67.42c.75-.55,1.61-1,2.23-1.67.65-.71,1.06-1.64,1.59-2.46,3.04-4.69,4.32-5.14,10.24-3.44-1.84,2.58-3.56,5.12-5.42,7.56-.93,1.22-1.02,2.12-.06,3.42,2.49,3.39,4.81,6.92,7.65,11.06Z"/>
      <path class="cls-1" d="M239.91,30.08c1.91-2.73,4.35-4.06,7.36-4.25,4.12-.25,7.37,2.56,7.7,7.16.35,4.94.72,9.98.13,14.87-.36,2.96-3.82,1.05-5.79,1.66-1.27.39-1.76-.35-1.77-1.58-.04-3.58-.07-7.16-.2-10.74-.07-1.86.45-4.19-2.47-4.48-2.21-.22-4.31,1.83-4.44,4.56-.15,3.09-.17,6.2.04,9.27.15,2.14-.48,2.84-2.65,2.89-5.29.14-5.23.24-5.33-4.92-.09-4.96-.27-9.91-.53-14.86-.08-1.47.32-2.18,1.76-2.65,4.32-1.41,4.38-1.43,6.21,3.06Z"/>
      <path class="cls-1" d="M142.89,35.95c-.28-4.28-1.69-4.56-10.43-2.37-1.88-3.68-1.42-5.06,2.28-6.49,3.18-1.23,6.45-1.73,9.81-.84,3.39.89,5.45,3.24,5.8,6.73.2,1.94.22,3.9.3,5.85.09,2.03.15,4.07.25,6.1.06,1.17.61,3.09.16,3.37-1.39.85-3.25,1.57-4.78,1.35-1.11-.16-2-1.9-2.68-2.61-2.17.9-4.47,2.31-6.95,2.75-3.08.54-5.5-1.22-6.41-3.74-.97-2.68-.2-6.11,2.28-7.63,1.94-1.19,4.28-1.81,6.52-2.4,1.19-.32,2.54-.06,3.84-.06ZM142.84,39.43c-1.81.32-3.37.38-4.71.94-.62.26-1.16,1.54-1.09,2.3.04.47,1.33,1.19,2.02,1.16,2.36-.11,3.12-1.89,3.77-4.4Z"/>
      <path class="cls-1" d="M209.2,33.64c-1.65-4.08-1.16-5.61,2.78-6.69,2.61-.71,5.46-1.06,8.14-.84,4.43.36,6.8,3.12,7.14,7.56.35,4.53.64,9.07.87,13.6.02.49-.43,1.32-.85,1.47-1.37.48-2.93,1.21-4.21.92-1.12-.26-1.96-1.76-3.13-2.91-.27.23-.89.79-1.56,1.3-2.6,2-5.45,2.52-8.47,1.17-2.36-1.05-3.21-3.12-3.17-5.58.06-3.44,1.94-5.75,5.05-6.75,2.44-.78,5.07-.95,7.67-1.4.38-3.68-2.08-4.19-10.27-1.85ZM219.61,39.37c-1.87.37-3.41.48-4.77,1.04-.58.24-1.2,1.49-1.05,2.11.13.57,1.25,1.28,1.94,1.29,2.42.04,3.2-1.76,3.88-4.45Z"/>
      <path class="cls-1" d="M114.73,39.39c1.22,4.66,4.41,5.29,12.54,2.71,1.05,3.29.21,5.25-2.83,6.6-5.1,2.27-11.05,1.38-14.3-2.13-3.37-3.64-3.99-9.68-1.49-14.4,2.4-4.54,7.46-6.94,12.78-6.08,5.22.85,8.55,6.99,6.32,11.86-.27.59-1.35,1.09-2.08,1.13-2.85.15-5.7.1-8.56.14-.78.01-1.56.11-2.39.17ZM120.62,35.42c.37-1.75.46-3.17-1.49-3.65-1.98-.49-3.58.91-4.24,3.65h5.73Z"/>
      <path class="cls-1" d="M286.32,39.13c.82,4.82,4.42,5.57,12.42,2.99,1.05,3.53.22,5.3-3.11,6.69-6.81,2.83-14.11.2-16.19-5.85-2.52-7.3,1.11-14.81,8.02-16.63,7.68-2.02,13.19,2.56,12.2,10.1-.25,1.89-.93,2.87-3.1,2.75-3.38-.19-6.78-.05-10.24-.05ZM292.69,35.34c-.55-1.33-.7-2.78-1.39-3.1-.91-.42-2.44-.32-3.32.21-.83.5-1.16,1.84-1.96,3.23,2.57-.13,4.32-.22,6.66-.34Z"/>
      <path class="cls-1" d="M276.12,34.23c-3.07-1.85-5.92-3.21-8.73-.42-1.72,1.7-2.09,5.09-.6,7.04,3.03,3.99,6.77,2.21,10.34.82,1.2,3.86.04,6.32-3.45,7.59-6.47,2.35-13.12-.79-14.89-7.04-2.08-7.35,1.82-14.64,8.78-15.91,2.4-.44,4.99-.07,7.47.15,2.02.18,2.76,1.49,2.25,3.46-.36,1.38-.74,2.75-1.16,4.31Z"/>
      <path class="cls-1" d="M107.17,25.97c-.65,3.23-1.22,6.04-1.77,8.77-5.42-.06-6.86,1.38-6.95,6.62-.03,2.03-.02,4.07.11,6.1.09,1.39-.45,1.87-1.79,1.91-7.36.24-5.75.5-5.98-5.34-.19-4.88-.48-9.75-.58-14.62-.01-.73.7-1.54,1.23-2.18.27-.32.88-.38,1.35-.51q3.66-.98,4.84,2.64c.09.29.27.55.5,1.02,2.17-2.79,4.76-4.52,9.03-4.42Z"/>
      <path class="cls-1" d="M32.88,56.17c-.07,3.76-3.06,6.66-6.74,6.54-3.75-.12-6.54-3.09-6.43-6.85.1-3.74,3.13-6.71,6.73-6.61,3.6.1,6.52,3.23,6.44,6.92Z"/>
    </g>
  </g>
</svg>